<?xml version="1.0" encoding="utf-8"?>
<!-- Generator: Adobe Illustrator 24.0.2, SVG Export Plug-In . SVG Version: 6.00 Build 0)  -->
<svg version="1.1" id="Layer_1" xmlns="http://www.w3.org/2000/svg" xmlns:xlink="http://www.w3.org/1999/xlink" x="0px" y="0px"
	 viewBox="0 0 575.7 202.7" style="enable-background:new 0 0 575.7 202.7;" xml:space="preserve">
<style type="text/css">
	.st0{fill:url(#SVGID_1_);}
	.st1{fill:url(#SVGID_2_);}
	.st2{fill:url(#SVGID_3_);}
	.st3{fill:none;}
	.st4{fill:#941800;}
	.st5{font-family:'Avenir-Medium';}
	.st6{font-size:136.5138px;}
	.st7{fill:url(#SVGID_4_);}
	.st8{fill:url(#SVGID_5_);}
	.st9{fill:url(#SVGID_6_);}
	.st10{fill:url(#SVGID_7_);}
	.st11{fill:url(#SVGID_8_);}
</style>
<linearGradient id="SVGID_1_" gradientUnits="userSpaceOnUse" x1="137.29" y1="119.1933" x2="150.7085" y2="55.9108" gradientTransform="matrix(-0.3095 -0.9509 -0.9509 0.3095 159.8107 218.8649)">
	<stop  offset="0" style="stop-color:#1DE2CE"/>
	<stop  offset="0.5296" style="stop-color:#158BFF"/>
	<stop  offset="1" style="stop-color:#2E91BF"/>
</linearGradient>
<path class="st0" d="M43.5,156.8l-2.3-93.1C41,54,31,47.3,24.4,52.3L9.5,63.6C6.4,66,5.1,70.4,6,75l17.1,81.8
	C26.1,170.8,43.8,170.9,43.5,156.8z"/>
<linearGradient id="SVGID_2_" gradientUnits="userSpaceOnUse" x1="128.4318" y1="126.0544" x2="203.4963" y2="176.867" gradientTransform="matrix(0.4369 -0.8995 0.8995 0.4369 -107.4708 190.0735)">
	<stop  offset="0" style="stop-color:#1DE2CE"/>
	<stop  offset="0.5296" style="stop-color:#158BFF"/>
	<stop  offset="1" style="stop-color:#2E91BF"/>
</linearGradient>
<path class="st1" d="M79.7,154.2L98,62.3c1.9-9.6,12.9-15.2,18.6-9.5l12.7,12.8c2.7,2.7,3.2,7.1,1.5,11.6l-31.1,79.2
	C94.5,169.9,76.9,168.1,79.7,154.2z"/>
<linearGradient id="SVGID_3_" gradientUnits="userSpaceOnUse" x1="154.4601" y1="254.7851" x2="187.1301" y2="164.1228" gradientTransform="matrix(-0.1768 -0.9842 -0.9842 0.1768 307.6432 227.8498)">
	<stop  offset="0" style="stop-color:#1DE2CE"/>
	<stop  offset="0.5296" style="stop-color:#158BFF"/>
	<stop  offset="1" style="stop-color:#2E91BF"/>
</linearGradient>
<path class="st2" d="M72.6,152.4L93.1,45.7c2.1-11.2-7.6-19.8-16.5-14.5L56.7,42.9c-4.2,2.4-6.8,7.3-6.9,12.7l-0.6,95.1
	C49.2,166.9,69.6,168.6,72.6,152.4z"/>
<g>
	<rect x="155.1" y="46.3" class="st3" width="402.1" height="126.7"/>
	<text transform="matrix(1 0 0 1 155.0912 149.5253)" class="st4 st5 st6">uBook</text>
	<g>
		<linearGradient id="SVGID_4_" gradientUnits="userSpaceOnUse" x1="343.6476" y1="37.4604" x2="388.4365" y2="312.4244">
			<stop  offset="0" style="stop-color:#FFFFFF"/>
			<stop  offset="0.6697" style="stop-color:#999999"/>
		</linearGradient>
		<path class="st7" d="M221.7,149.5h-12.3v-10h-0.3c-1.5,3.5-4.2,6.3-8.1,8.4c-3.8,2.1-8.2,3.2-13.2,3.2c-3.2,0-6.2-0.5-9-1.4
			c-2.8-1-5.3-2.4-7.4-4.4c-2.1-2-3.8-4.6-5.1-7.7c-1.3-3.1-1.9-6.8-1.9-11.1V84.8h12.3V123c0,3,0.4,5.6,1.2,7.7
			c0.8,2.1,1.9,3.9,3.3,5.2c1.4,1.3,2.9,2.3,4.7,2.9c1.8,0.6,3.6,0.9,5.5,0.9c2.5,0,4.9-0.4,7.1-1.2c2.2-0.8,4.1-2.1,5.7-3.9
			s2.9-4,3.8-6.8c0.9-2.7,1.4-6,1.4-9.7V84.8h12.3V149.5z"/>
		<linearGradient id="SVGID_5_" gradientUnits="userSpaceOnUse" x1="343.6476" y1="37.4604" x2="388.4365" y2="312.4244">
			<stop  offset="0" style="stop-color:#FFFFFF"/>
			<stop  offset="0.6697" style="stop-color:#999999"/>
		</linearGradient>
		<path class="st8" d="M243.4,52.9H277c4.2,0,8.1,0.5,11.7,1.5c3.6,1,6.7,2.5,9.3,4.4c2.6,2,4.6,4.5,6.1,7.5
			c1.5,3.1,2.3,6.6,2.3,10.7c0,5.6-1.5,10.1-4.6,13.6c-3.1,3.5-7.1,6.1-12,7.7v0.3c2.9,0.2,5.6,0.9,8.2,2.3c2.5,1.3,4.8,3,6.6,5.2
			c1.9,2.1,3.3,4.6,4.4,7.4c1.1,2.8,1.6,5.9,1.6,9.1c0,4.4-0.9,8.2-2.7,11.5c-1.8,3.3-4.2,6.1-7.3,8.4c-3.1,2.3-6.7,4-10.8,5.2
			c-4.1,1.2-8.5,1.8-13.2,1.8h-33.2V52.9z M256.5,93h17.9c2.5,0,4.8-0.2,7-0.8c2.2-0.5,4.1-1.3,5.7-2.5c1.6-1.2,2.9-2.7,3.9-4.5
			c1-1.8,1.4-4,1.4-6.7c0-3.8-1.2-7.1-3.7-10c-2.5-2.8-6.3-4.2-11.6-4.2h-20.6V93z M256.5,138.1h19.2c2,0,4.2-0.2,6.6-0.6
			c2.4-0.4,4.7-1.2,6.8-2.5c2.1-1.2,3.9-2.9,5.3-5c1.5-2.1,2.2-4.9,2.2-8.3c0-5.7-1.9-10-5.6-12.9c-3.7-2.9-8.8-4.3-15.2-4.3h-19.4
			V138.1z"/>
		<linearGradient id="SVGID_6_" gradientUnits="userSpaceOnUse" x1="343.6476" y1="37.4604" x2="388.4365" y2="312.4244">
			<stop  offset="0" style="stop-color:#FFFFFF"/>
			<stop  offset="0.6697" style="stop-color:#999999"/>
		</linearGradient>
		<path class="st9" d="M323.1,117.2c0-4.7,0.9-9.1,2.7-13.2c1.8-4.1,4.2-7.7,7.3-10.8c3.1-3.1,6.7-5.5,10.9-7.3
			c4.2-1.8,8.7-2.7,13.5-2.7c4.8,0,9.3,0.9,13.5,2.7c4.2,1.8,7.8,4.2,10.9,7.3c3.1,3.1,5.5,6.7,7.3,10.8c1.8,4.1,2.7,8.5,2.7,13.2
			c0,4.7-0.9,9.2-2.7,13.3c-1.8,4.1-4.2,7.7-7.3,10.8c-3.1,3-6.7,5.5-10.9,7.2c-4.2,1.8-8.7,2.7-13.5,2.7c-4.8,0-9.3-0.9-13.5-2.7
			c-4.2-1.8-7.8-4.2-10.9-7.2c-3.1-3-5.5-6.6-7.3-10.8C324,126.3,323.1,121.9,323.1,117.2z M336.2,117.2c0,3.3,0.5,6.3,1.5,9.1
			c1,2.8,2.4,5.1,4.2,7.1c1.8,2,4,3.5,6.7,4.6c2.6,1.1,5.6,1.7,8.9,1.7s6.2-0.6,8.9-1.7c2.6-1.1,4.9-2.7,6.7-4.6
			c1.8-2,3.2-4.3,4.2-7.1c1-2.8,1.5-5.8,1.5-9.1c0-3.3-0.5-6.3-1.5-9.1c-1-2.8-2.4-5.1-4.2-7.1c-1.8-2-4.1-3.5-6.7-4.6
			c-2.6-1.1-5.6-1.7-8.9-1.7s-6.2,0.6-8.9,1.7c-2.6,1.1-4.9,2.7-6.7,4.6c-1.8,2-3.2,4.3-4.2,7.1
			C336.7,110.9,336.2,113.9,336.2,117.2z"/>
		<linearGradient id="SVGID_7_" gradientUnits="userSpaceOnUse" x1="343.6476" y1="37.4604" x2="388.4365" y2="312.4244">
			<stop  offset="0" style="stop-color:#FFFFFF"/>
			<stop  offset="0.6697" style="stop-color:#999999"/>
		</linearGradient>
		<path class="st10" d="M404.2,117.2c0-4.7,0.9-9.1,2.7-13.2c1.8-4.1,4.2-7.7,7.3-10.8c3.1-3.1,6.7-5.5,10.9-7.3
			c4.2-1.8,8.7-2.7,13.5-2.7c4.8,0,9.3,0.9,13.5,2.7c4.2,1.8,7.8,4.2,10.9,7.3c3.1,3.1,5.5,6.7,7.3,10.8c1.8,4.1,2.7,8.5,2.7,13.2
			c0,4.7-0.9,9.2-2.7,13.3c-1.8,4.1-4.2,7.7-7.3,10.8c-3.1,3-6.7,5.5-10.9,7.2c-4.2,1.8-8.7,2.7-13.5,2.7c-4.8,0-9.3-0.9-13.5-2.7
			c-4.2-1.8-7.8-4.2-10.9-7.2c-3.1-3-5.5-6.6-7.3-10.8C405.1,126.3,404.2,121.9,404.2,117.2z M417.3,117.2c0,3.3,0.5,6.3,1.5,9.1
			c1,2.8,2.4,5.1,4.2,7.1c1.8,2,4,3.5,6.7,4.6c2.6,1.1,5.6,1.7,8.9,1.7s6.2-0.6,8.9-1.7c2.6-1.1,4.9-2.7,6.7-4.6
			c1.8-2,3.2-4.3,4.2-7.1c1-2.8,1.5-5.8,1.5-9.1c0-3.3-0.5-6.3-1.5-9.1c-1-2.8-2.4-5.1-4.2-7.1c-1.8-2-4.1-3.5-6.7-4.6
			c-2.6-1.1-5.6-1.7-8.9-1.7s-6.2,0.6-8.9,1.7c-2.6,1.1-4.9,2.7-6.7,4.6c-1.8,2-3.2,4.3-4.2,7.1
			C417.8,110.9,417.3,113.9,417.3,117.2z"/>
		<linearGradient id="SVGID_8_" gradientUnits="userSpaceOnUse" x1="343.6476" y1="37.4604" x2="388.4365" y2="312.4244">
			<stop  offset="0" style="stop-color:#FFFFFF"/>
			<stop  offset="0.6697" style="stop-color:#999999"/>
		</linearGradient>
		<path class="st11" d="M488.5,46.3h12.3v66.6l27.8-28h17.1l-30.2,29.4l32.8,35.2h-17.5l-30-33.6v33.6h-12.3V46.3z"/>
	</g>
</g>
</svg>
