<?xml version="1.0" encoding="utf-8"?>
<!-- Generator: Adobe Illustrator 24.0.2, SVG Export Plug-In . SVG Version: 6.00 Build 0)  -->
<svg version="1.1" id="Layer_1" xmlns="http://www.w3.org/2000/svg" xmlns:xlink="http://www.w3.org/1999/xlink" x="0px" y="0px"
	 viewBox="0 0 2860 2860" style="enable-background:new 0 0 2860 2860;" xml:space="preserve">
<style type="text/css">
	.st0{clip-path:url(#SVGID_2_);}
	.st1{clip-path:url(#SVGID_4_);}
	.st2{fill:none;stroke:url(#SVGID_6_);stroke-width:62;stroke-miterlimit:10;}
	.st3{fill:none;stroke:url(#SVGID_7_);stroke-miterlimit:10;}
	.st4{stroke:url(#SVGID_8_);stroke-width:62;stroke-miterlimit:10;}
	.st5{stroke:url(#SVGID_9_);stroke-width:43;stroke-miterlimit:10;}
	.st6{stroke:url(#SVGID_10_);stroke-width:43;stroke-miterlimit:10;}
	.st7{stroke:url(#SVGID_11_);stroke-width:43;stroke-miterlimit:10;}
</style>
<title>logo</title>
<g>
	<defs>
		<path id="SVGID_1_" d="M137.2,36h2585.6c55.9,0,101.2,45.3,101.2,101.2v2585.6c0,55.9-45.3,101.2-101.2,101.2H137.2
			C81.3,2824,36,2778.7,36,2722.8V137.2C36,81.3,81.3,36,137.2,36z"/>
	</defs>
	<clipPath id="SVGID_2_">
		<use xlink:href="#SVGID_1_"  style="overflow:visible;"/>
	</clipPath>
	<g class="st0">
		<g>
			<defs>
				<rect id="SVGID_3_" x="31" y="31" width="2798" height="2798"/>
			</defs>
			<clipPath id="SVGID_4_">
				<use xlink:href="#SVGID_3_"  style="overflow:visible;"/>
			</clipPath>
			<g class="st1">
				
					<image style="overflow:visible;enable-background:new    ;" width="5830" height="5830" xlink:href="E5BC9EF5E5FCBEE7.png"  transform="matrix(0.48 0 0 0.48 30.72 30.72)">
				</image>
			</g>
			<radialGradient id="SVGID_5_" cx="1430" cy="1430" r="1399.5" gradientUnits="userSpaceOnUse">
				<stop  offset="0" style="stop-color:#000000"/>
				<stop  offset="0.9428" style="stop-color:#FFFFFF"/>
			</radialGradient>
			<use xlink:href="#SVGID_3_"  style="overflow:visible;fill:none;stroke:url(#SVGID_5_);stroke-miterlimit:10;"/>
		</g>
		
			<radialGradient id="SVGID_6_" cx="1399.28" cy="1462.72" r="1430.33" gradientTransform="matrix(1 0 0 -1 0 2862)" gradientUnits="userSpaceOnUse">
			<stop  offset="0" style="stop-color:#FFFFFF"/>
			<stop  offset="0.47" style="stop-color:#000000"/>
		</radialGradient>
		<rect x="31" y="31" class="st2" width="2798" height="2798"/>
	</g>
</g>
<radialGradient id="SVGID_7_" cx="1399.28" cy="1462.72" r="1394.8384" gradientTransform="matrix(1 0 0 -1 0 2862)" gradientUnits="userSpaceOnUse">
	<stop  offset="0" style="stop-color:#FFFFFF"/>
	<stop  offset="0.47" style="stop-color:#000000"/>
</radialGradient>
<path class="st3" d="M137.2,36h2585.6c55.9,0,101.2,45.3,101.2,101.2v2585.6c0,55.9-45.3,101.2-101.2,101.2H137.2
	C81.3,2824,36,2778.7,36,2722.8V137.2C36,81.3,81.3,36,137.2,36z"/>
<radialGradient id="SVGID_8_" cx="1430" cy="1430" r="1425" gradientUnits="userSpaceOnUse">
	<stop  offset="0" style="stop-color:#FFFFFF"/>
	<stop  offset="0.47" style="stop-color:#000000"/>
</radialGradient>
<path class="st4" d="M2722.8,44c51.4,0.1,93.1,41.7,93.2,93.2v2585.6c-0.1,51.4-41.7,93.1-93.2,93.2H137.2
	c-51.4-0.1-93.1-41.7-93.2-93.2V137.2c0.1-51.4,41.7-93.1,93.2-93.2H2722.8 M2722.8,36H137.2C81.3,36,36,81.3,36,137.2v2585.6
	c0,55.9,45.3,101.2,101.2,101.2h2585.6c55.9,0,101.2-45.3,101.2-101.2V137.2C2824,81.3,2778.7,36,2722.8,36L2722.8,36z"/>
<radialGradient id="SVGID_9_" cx="591.28" cy="1618.7201" r="911.6085" gradientTransform="matrix(1 0 0 -1 30.72 2892.72)" gradientUnits="userSpaceOnUse">
	<stop  offset="0" style="stop-color:#FFFFFF"/>
	<stop  offset="0.47" style="stop-color:#000000"/>
</radialGradient>
<path class="st5" d="M900,51.5v2387.4c0,31.8-25.8,57.6-57.6,57.6H401.6c-31.8,0-57.6-25.8-57.6-57.6V51.5H900 M908,43.5H336v2395.4
	c0,36.2,29.4,65.6,65.6,65.6h440.7c36.2,0,65.6-29.4,65.6-65.6V43.5z"/>
<radialGradient id="SVGID_10_" cx="1425.28" cy="1903.72" r="711.7859" gradientTransform="matrix(1 0 0 -1 30.72 2892.72)" gradientUnits="userSpaceOnUse">
	<stop  offset="0" style="stop-color:#FFFFFF"/>
	<stop  offset="0.47" style="stop-color:#000000"/>
</radialGradient>
<path class="st6" d="M1734,60v1800.4c0,31.8-25.8,57.6-57.6,57.6h-440.7c-31.8,0-57.6-25.8-57.6-57.6V60H1734 M1742,52h-572v1808.4
	c0,36.2,29.4,65.6,65.6,65.6l0,0h440.7c36.2,0,65.6-29.4,65.6-65.6l0,0l0,0V52z"/>
<radialGradient id="SVGID_11_" cx="2259.28" cy="2217.72" r="499.8442" gradientTransform="matrix(1 0 0 -1 30.72 2892.72)" gradientUnits="userSpaceOnUse">
	<stop  offset="0" style="stop-color:#FFFFFF"/>
	<stop  offset="0.47" style="stop-color:#000000"/>
</radialGradient>
<path class="st7" d="M2568,68v1156.4c0,31.8-25.8,57.6-57.6,57.6h-440.7c-31.8,0-57.6-25.8-57.6-57.6V68H2568 M2576,60h-572v1164.4
	c0,36.2,29.4,65.6,65.6,65.6l0,0h440.7c36.2,0,65.6-29.4,65.6-65.6L2576,60L2576,60z"/>
</svg>
