<?xml version="1.0" encoding="utf-8"?>
<!-- Generator: Adobe Illustrator 24.0.2, SVG Export Plug-In . SVG Version: 6.00 Build 0)  -->
<svg version="1.1" id="Layer_1" xmlns="http://www.w3.org/2000/svg" xmlns:xlink="http://www.w3.org/1999/xlink" x="0px" y="0px"
	 viewBox="0 0 1200 400" style="enable-background:new 0 0 1200 400;" xml:space="preserve">
<style type="text/css">
	.st0{fill:url(#SVGID_1_);}
	.st1{fill:url(#SVGID_2_);}
	.st2{fill:url(#SVGID_3_);}
	.st3{fill:url(#SVGID_4_);}
	.st4{fill:url(#SVGID_5_);}
	.st5{fill:none;}
	.st6{fill:#C6C6C6;}
	.st7{font-family:'BodoniSvtyTwoSCITCTT-Book';}
	.st8{font-size:320px;}
	.st9{letter-spacing:1;}
</style>
<g>
	<g>
		<radialGradient id="SVGID_1_" cx="623.9518" cy="229.1743" r="542.9645" gradientUnits="userSpaceOnUse">
			<stop  offset="0" style="stop-color:#C6C6C6"/>
			<stop  offset="0.1293" style="stop-color:#C6C6C6"/>
			<stop  offset="0.915" style="stop-color:#C6C6C6"/>
		</radialGradient>
		<path class="st0" d="M363.8,110.8c0,1.5-1.7,2.2-5.1,2.2h-1.6c-2.1,0-4.3,0-6.4,0c-3.4,0-5.1,2.1-5.1,6.4v58.9
			c0,20.6-0.4,33.9-1.3,39.8c-0.9,5.9-3.1,11.9-6.7,17.8c-8.3,13.4-23,20.1-44.2,20.1c-17.5,0-31.5-4-41.9-12.1
			c-9.6-7.5-14.4-21.8-14.4-43.1v-67.4c0-11.5-0.4-17.8-1.1-18.8c-0.8-1.1-3.9-1.6-9.4-1.6c-4.5,0-6.7-0.9-6.7-2.6
			c0-1.5,1.5-2.2,4.5-2.2h4.5c1.5,0,3.3,0,5.4,0c2.1,0,3.7,0,4.8,0h26.9c1.5,0,3.3,0,5.4,0c1.9,0,3.1,0,3.5,0c3.8,0,5.8,0.9,5.8,2.6
			c0,2.1-3.9,3.1-11.8,2.9c-2.4,0-3.7,0.4-4.2,1.1c-0.4,0.7-0.6,3.1-0.6,7.2v76.6c0,20.9,2.7,34.4,8,40.5c6,7,14.8,10.5,26.6,10.5
			c16.4,0,27.6-6.8,33.6-20.4c3-6.8,4.5-17.7,4.5-32.8c0,0.2,0-1,0-3.5c0-2.3,0-4.8,0-7.3v-66.3c0-2.8-0.5-4.5-1.6-5.1
			c-1.1-0.6-4.1-1-9-1c-4.9,0-7.3-1-7.3-2.9c0-1.5,1.3-2.2,3.8-2.2c1.1,0,2.1,0,3.2,0h14.7c0.2,0,1.4,0,3.5,0c2.3,0,5.8,0,10.2,0
			h4.5C362.1,108.3,363.8,109.1,363.8,110.8z"/>
		<radialGradient id="SVGID_2_" cx="623.9518" cy="229.1743" r="542.9645" gradientUnits="userSpaceOnUse">
			<stop  offset="0" style="stop-color:#C6C6C6"/>
			<stop  offset="0.1293" style="stop-color:#C6C6C6"/>
			<stop  offset="0.915" style="stop-color:#C6C6C6"/>
		</radialGradient>
		<path class="st1" d="M536.9,195.6c0,21.8-9.9,37.9-29.8,48.3c-9.6,5.1-23.4,8.3-41.3,9.6c-4.9,0.2-19.4,0.3-43.5,0.3h-39
			c-3.6,0-5.4-0.9-5.4-2.7c0-1.8,3.3-2.7,9.9-2.7c7.7,0,12.2-0.8,13.6-2.4c1.4-1.6,2.1-6.5,2.1-14.6V58.4c0-9.4-0.4-14.8-1.3-16.3
			c-1.5-2.6-6.9-3.9-16.3-4.2c-5.8,0-8.6-1.1-8.6-3.4c0-2,2.7-3,8-3c0.2,0,1.5,0,3.8,0c2.3,0.6,4.5,1,6.4,1h62.4
			c23,0.2,40.2,4.1,51.5,11.5c13.2,8.8,19.8,21.4,19.8,38.1c0,14.5-5.4,26.4-16.3,35.7c-10.9,9.3-26.1,15.1-45.8,17.4v1.9
			c19.4,1.3,34.6,5.3,45.4,12.2C528.8,159.5,536.9,175,536.9,195.6z M494,85.2c0-20.5-4.7-34.1-14.1-41c-4.9-3.6-14.2-5.4-27.8-5.4
			c-3.6,0-9.3,0.3-17,1v92.8h2.9l17.6-0.6c12.2-0.4,21.6-4.7,28.3-13C490.7,110.8,494,99.5,494,85.2z M503.3,192.1
			c0-26.9-10.9-43.5-32.6-49.9c-6.4-1.9-18.2-2.9-35.5-2.9v95.4c0,6.2,0.6,9.7,1.9,10.6c2.1,1.5,8.1,2.2,17.9,2.2
			c14.7,0,26.4-4.7,35.2-14.1C498.9,224,503.3,210.3,503.3,192.1z"/>
		<radialGradient id="SVGID_3_" cx="623.9518" cy="229.1743" r="542.9645" gradientUnits="userSpaceOnUse">
			<stop  offset="0" style="stop-color:#C6C6C6"/>
			<stop  offset="0.1293" style="stop-color:#C6C6C6"/>
			<stop  offset="0.915" style="stop-color:#C6C6C6"/>
		</radialGradient>
		<path class="st2" d="M705.2,182c0,20.7-6.7,38.2-20.2,52.5c-13.4,14.4-29.9,21.6-49.3,21.6c-20.7,0-38.1-7.3-52.3-21.9
			c-14.2-14.6-21.3-32.4-21.3-53.5c0-21.9,6.8-39.9,20.3-53.8c13.5-13.9,30.9-20.9,52-20.9c20.1,0,36.9,7.3,50.4,21.9
			C698.5,142.5,705.2,160.5,705.2,182z M675.2,183c0-24.7-5-44.2-15-58.4c-6.4-9.1-15.3-13.7-26.6-13.7c-15.6,0-26.9,8.5-33.9,25.5
			c-4.9,11.9-7.4,27-7.4,45.3c0,21.9,3.8,39.1,11.5,51.4c7.7,12.3,18.3,18.5,32,18.5C662,251.6,675.2,228.8,675.2,183z"/>
		<radialGradient id="SVGID_4_" cx="623.9518" cy="229.1743" r="542.9645" gradientUnits="userSpaceOnUse">
			<stop  offset="0" style="stop-color:#C6C6C6"/>
			<stop  offset="0.1293" style="stop-color:#C6C6C6"/>
			<stop  offset="0.915" style="stop-color:#C6C6C6"/>
		</radialGradient>
		<path class="st3" d="M868.1,182c0,20.7-6.7,38.2-20.2,52.5c-13.4,14.4-29.9,21.6-49.3,21.6c-20.7,0-38.1-7.3-52.3-21.9
			c-14.2-14.6-21.3-32.4-21.3-53.5c0-21.9,6.8-39.9,20.3-53.8c13.5-13.9,30.9-20.9,52-20.9c20.1,0,36.9,7.3,50.4,21.9
			C861.3,142.5,868.1,160.5,868.1,182z M838,183c0-24.7-5-44.2-15-58.4c-6.4-9.1-15.3-13.7-26.6-13.7c-15.6,0-26.9,8.5-33.9,25.5
			c-4.9,11.9-7.4,27-7.4,45.3c0,21.9,3.8,39.1,11.5,51.4s18.3,18.5,32,18.5C824.9,251.6,838,228.8,838,183z"/>
		<radialGradient id="SVGID_5_" cx="623.9518" cy="229.1743" r="542.9645" gradientUnits="userSpaceOnUse">
			<stop  offset="0" style="stop-color:#C6C6C6"/>
			<stop  offset="0.1293" style="stop-color:#C6C6C6"/>
			<stop  offset="0.915" style="stop-color:#C6C6C6"/>
		</radialGradient>
		<path class="st4" d="M1040.3,251.3c0,1.3-0.4,2-1.1,2.2c-0.8,0.2-3.3,0.3-7.5,0.3h-6.4h-47c-3.8,0-5.8-0.6-5.8-1.8
			c0-1.4,3.5-2.4,10.6-3c4.3-0.4,6.4-1.3,6.4-2.6c0-0.9-2.5-4-7.4-9.3c-4.5-4.7-21.7-23.5-51.5-56.3v57.6c0,5.1,0.6,8.1,1.9,9
			c1.3,0.9,5.4,1.4,12.5,1.6c2.3,0,3.5,0.9,3.5,2.6c0,1.5-1.6,2.2-4.8,2.2h-2.2c-2.1,0-12.4,0-30.7,0c-8.1,0-14.1,0-17.9,0h-2.2
			c-3,0-4.5-0.8-4.5-2.6c0-1.9,3.1-2.8,9.3-2.6c4.3,0,6.7-0.6,7.4-1.9s1-5.9,1-13.8V125.9c0-6-0.1-9.3-0.3-9.9
			c-0.7-1.7-3.7-2.6-9.1-2.6s-8.1-1-8.1-2.9c0-1.5,1.5-2.2,4.5-2.2c0.4,0,1.5,0,3.2,0c1.9,0.2,3.5,0.3,4.8,0.3l20.9-0.3
			c1.1,0,5.6,0.1,13.5,0.3l10.9-0.3c3,0,4.5,0.9,4.5,2.6c0,1.5-3.5,2.4-10.6,2.6c-3.4,0.2-5.5,0.6-6.2,1.1c-0.8,0.5-1.1,2.3-1.1,5.3
			v52.8c39.9-36.9,59.8-56.1,59.8-57.6c0-1.1-4.4-1.6-13.1-1.6c-2.6,0-3.8-0.9-3.8-2.6c0-1.3,0.7-2,2.2-2.2c1.5-0.2,6.8-0.3,16-0.3
			c16.4,0,26,0.1,28.8,0.3c2.8,0.2,4.2,1,4.2,2.4c0,2-1.9,2.9-5.8,2.7h-9c-3-0.2-6.6,1.7-10.9,5.8c-2.8,2.3-7,6.2-12.8,11.5
			c-8.5,8.1-21.5,20.2-39,36.2c2.8,3,12.9,13.4,30.4,31.1l37.8,38.2c6,6,9.9,9.6,11.8,10.7c1.9,1.2,5,1.8,9.3,1.8
			C1039,249.1,1040.3,249.8,1040.3,251.3z"/>
	</g>
	<rect x="37.8" y="108.3" class="st5" width="1172.3" height="373.5"/>
	<text transform="matrix(1 0 0 1 213.7188 253.8848)" class="st6 st7 st8 st9">uBook</text>
</g>
</svg>
