<?xml version="1.0" encoding="utf-8"?>
<!-- Generator: Adobe Illustrator 24.0.2, SVG Export Plug-In . SVG Version: 6.00 Build 0)  -->
<svg version="1.1" id="Layer_1" xmlns="http://www.w3.org/2000/svg" xmlns:xlink="http://www.w3.org/1999/xlink" x="0px" y="0px"
	 viewBox="0 0 1200 1200" style="enable-background:new 0 0 1200 1200;" xml:space="preserve">
<style type="text/css">
	.st0{fill:url(#SVGID_1_);}
	.st1{fill:url(#SVGID_2_);}
	.st2{fill:url(#SVGID_3_);}
</style>
<linearGradient id="SVGID_1_" gradientUnits="userSpaceOnUse" x1="-1225.8965" y1="1915.7751" x2="-1108.0103" y2="1359.8165" gradientTransform="matrix(0.3095 -0.9509 0.9509 0.3095 -280.3852 -991.1086)">
	<stop  offset="0" style="stop-color:#1DE2CE"/>
	<stop  offset="0.5296" style="stop-color:#158BFF"/>
	<stop  offset="1" style="stop-color:#2E91BF"/>
</linearGradient>
<path class="st0" d="M814.5,1045l20.2-817.9c1.8-85.2,89.6-144.1,147.6-100.2l130.9,99.3c27.2,21.1,38.7,59.7,30.7,100.2L993.8,1045
	C967.4,1168,811.9,1168.9,814.5,1045z"/>
<linearGradient id="SVGID_2_" gradientUnits="userSpaceOnUse" x1="-1816.213" y1="490.0733" x2="-1157.3927" y2="936.0414" gradientTransform="matrix(-0.4369 -0.8995 -0.8995 0.4369 299.1339 -1041.3906)">
	<stop  offset="0" style="stop-color:#1DE2CE"/>
	<stop  offset="0.5296" style="stop-color:#158BFF"/>
	<stop  offset="1" style="stop-color:#2E91BF"/>
</linearGradient>
<path class="st1" d="M496.5,1022.1L335.7,214.8c-16.7-84.3-113.3-133.5-163.4-83.5L60.8,243.8C37,267.5,32.7,306.1,47.6,345.7
	l273.2,695.8C366.5,1160.1,521.1,1144.3,496.5,1022.1z"/>
<linearGradient id="SVGID_3_" gradientUnits="userSpaceOnUse" x1="-1457.8135" y1="1743.5537" x2="-1179.658" y2="971.648" gradientTransform="matrix(0.1768 -0.9842 0.9842 0.1768 -531.7454 -946.1794)">
	<stop  offset="0" style="stop-color:#1DE2CE"/>
	<stop  offset="0.5296" style="stop-color:#158BFF"/>
	<stop  offset="1" style="stop-color:#2E91BF"/>
</linearGradient>
<path class="st2" d="M558.9,1057.3L378.8,166.5c-18.4-93.1,66.8-165.2,145-121.2l174.8,97.5c36.9,20.2,59.7,60.6,60.6,106.3
	l5.3,794.2C764.5,1178.5,585.2,1192.6,558.9,1057.3z"/>
</svg>
