<?xml version="1.0" encoding="utf-8"?>
<!-- Generator: Adobe Illustrator 24.0.2, SVG Export Plug-In . SVG Version: 6.00 Build 0)  -->
<svg version="1.1" id="Layer_1" xmlns="http://www.w3.org/2000/svg" xmlns:xlink="http://www.w3.org/1999/xlink" x="0px" y="0px"
	 viewBox="0 0 575.7 202.7" style="enable-background:new 0 0 575.7 202.7;" xml:space="preserve">
<style type="text/css">
	.st0{fill:url(#SVGID_1_);}
	.st1{fill:url(#SVGID_2_);}
	.st2{fill:url(#SVGID_3_);}
	.st3{fill:none;}
	.st4{fill:#941800;}
	.st5{font-family:'Avenir-Medium';}
	.st6{font-size:136.5138px;}
	.st7{fill:url(#SVGID_4_);}
	.st8{fill:url(#SVGID_5_);}
	.st9{fill:url(#SVGID_6_);}
	.st10{fill:url(#SVGID_7_);}
	.st11{fill:url(#SVGID_8_);}
</style>
<linearGradient id="SVGID_1_" gradientUnits="userSpaceOnUse" x1="-743.5182" y1="724.3849" x2="-730.0997" y2="787.6674" gradientTransform="matrix(0.3095 -0.9509 -0.9509 -0.3095 1052.4812 -357.596)">
	<stop  offset="0" style="stop-color:#1DE2CE"/>
	<stop  offset="0.5296" style="stop-color:#158BFF"/>
	<stop  offset="1" style="stop-color:#2E91BF"/>
</linearGradient>
<path class="st0" d="M94,156.8l2.3-93.1c0.2-9.7,10.2-16.4,16.8-11.4L128,63.6c3.1,2.4,4.4,6.8,3.5,11.4l-17.1,81.8
	C111.4,170.8,93.7,170.9,94,156.8z"/>
<linearGradient id="SVGID_2_" gradientUnits="userSpaceOnUse" x1="-494.6699" y1="78.6103" x2="-419.6791" y2="27.8476" gradientTransform="matrix(-0.4369 -0.8995 0.8995 -0.4369 -211.3485 -280.9672)">
	<stop  offset="0" style="stop-color:#1DE2CE"/>
	<stop  offset="0.5296" style="stop-color:#158BFF"/>
	<stop  offset="1" style="stop-color:#2E91BF"/>
</linearGradient>
<path class="st1" d="M57.8,154.2L39.5,62.3c-1.9-9.6-12.9-15.2-18.6-9.5L8.2,65.6C5.5,68.3,5,72.7,6.7,77.2l31.1,79.2
	C43,169.9,60.6,168.1,57.8,154.2z"/>
<linearGradient id="SVGID_3_" gradientUnits="userSpaceOnUse" x1="-709.4811" y1="665.0927" x2="-677.8204" y2="752.9539" gradientTransform="matrix(0.1768 -0.9842 -0.9842 -0.1768 886.7556 -452.1228)">
	<stop  offset="0" style="stop-color:#1DE2CE"/>
	<stop  offset="0.5296" style="stop-color:#158BFF"/>
	<stop  offset="1" style="stop-color:#2E91BF"/>
</linearGradient>
<path class="st2" d="M64.9,158.2L44.4,56.8C42.3,46.2,52,38,60.9,43l19.9,11.1c4.2,2.3,6.8,6.9,6.9,12.1l0.6,90.4
	C88.3,172,67.9,173.6,64.9,158.2z"/>
<g>
	<rect x="155.1" y="46.3" class="st3" width="402.1" height="126.7"/>
	<text transform="matrix(1 0 0 1 155.0912 149.5253)" class="st4 st5 st6">uBook</text>
	<g>
		
			<linearGradient id="SVGID_4_" gradientUnits="userSpaceOnUse" x1="185.8712" y1="140.8394" x2="230.6601" y2="-134.1246" gradientTransform="matrix(1 0 0 -1 0 204)">
			<stop  offset="0" style="stop-color:#FFFFFF"/>
			<stop  offset="0.6697" style="stop-color:#999999"/>
		</linearGradient>
		<path class="st7" d="M221.7,149.5h-12.3v-10h-0.3c-1.5,3.5-4.2,6.3-8.1,8.4c-3.8,2.1-8.2,3.2-13.2,3.2c-3.2,0-6.2-0.5-9-1.4
			c-2.8-1-5.3-2.4-7.4-4.4c-2.1-2-3.8-4.6-5.1-7.7c-1.3-3.1-1.9-6.8-1.9-11.1V84.8h12.3V123c0,3,0.4,5.6,1.2,7.7
			c0.8,2.1,1.9,3.9,3.3,5.2c1.4,1.3,2.9,2.3,4.7,2.9c1.8,0.6,3.6,0.9,5.5,0.9c2.5,0,4.9-0.4,7.1-1.2c2.2-0.8,4.1-2.1,5.7-3.9
			s2.9-4,3.8-6.8c0.9-2.7,1.4-6,1.4-9.7V84.8h12.3V149.5z"/>
		
			<linearGradient id="SVGID_5_" gradientUnits="userSpaceOnUse" x1="264.8356" y1="153.7019" x2="309.6245" y2="-121.2621" gradientTransform="matrix(1 0 0 -1 0 204)">
			<stop  offset="0" style="stop-color:#FFFFFF"/>
			<stop  offset="0.6697" style="stop-color:#999999"/>
		</linearGradient>
		<path class="st8" d="M243.4,52.9H277c4.2,0,8.1,0.5,11.7,1.5s6.7,2.5,9.3,4.4c2.6,2,4.6,4.5,6.1,7.5c1.5,3.1,2.3,6.6,2.3,10.7
			c0,5.6-1.5,10.1-4.6,13.6s-7.1,6.1-12,7.7v0.3c2.9,0.2,5.6,0.9,8.2,2.3c2.5,1.3,4.8,3,6.6,5.2c1.9,2.1,3.3,4.6,4.4,7.4
			s1.6,5.9,1.6,9.1c0,4.4-0.9,8.2-2.7,11.5c-1.8,3.3-4.2,6.1-7.3,8.4c-3.1,2.3-6.7,4-10.8,5.2c-4.1,1.2-8.5,1.8-13.2,1.8h-33.2
			L243.4,52.9L243.4,52.9z M256.5,93h17.9c2.5,0,4.8-0.2,7-0.8c2.2-0.5,4.1-1.3,5.7-2.5s2.9-2.7,3.9-4.5s1.4-4,1.4-6.7
			c0-3.8-1.2-7.1-3.7-10c-2.5-2.8-6.3-4.2-11.6-4.2h-20.6L256.5,93L256.5,93z M256.5,138.1h19.2c2,0,4.2-0.2,6.6-0.6
			c2.4-0.4,4.7-1.2,6.8-2.5c2.1-1.2,3.9-2.9,5.3-5c1.5-2.1,2.2-4.9,2.2-8.3c0-5.7-1.9-10-5.6-12.9s-8.8-4.3-15.2-4.3h-19.4v33.6
			H256.5z"/>
		
			<linearGradient id="SVGID_6_" gradientUnits="userSpaceOnUse" x1="344.4884" y1="166.6765" x2="389.2773" y2="-108.2875" gradientTransform="matrix(1 0 0 -1 0 204)">
			<stop  offset="0" style="stop-color:#FFFFFF"/>
			<stop  offset="0.6697" style="stop-color:#999999"/>
		</linearGradient>
		<path class="st9" d="M323.1,117.2c0-4.7,0.9-9.1,2.7-13.2c1.8-4.1,4.2-7.7,7.3-10.8c3.1-3.1,6.7-5.5,10.9-7.3
			c4.2-1.8,8.7-2.7,13.5-2.7s9.3,0.9,13.5,2.7c4.2,1.8,7.8,4.2,10.9,7.3c3.1,3.1,5.5,6.7,7.3,10.8c1.8,4.1,2.7,8.5,2.7,13.2
			s-0.9,9.2-2.7,13.3c-1.8,4.1-4.2,7.7-7.3,10.8c-3.1,3-6.7,5.5-10.9,7.2c-4.2,1.8-8.7,2.7-13.5,2.7s-9.3-0.9-13.5-2.7
			s-7.8-4.2-10.9-7.2s-5.5-6.6-7.3-10.8C324,126.3,323.1,121.9,323.1,117.2z M336.2,117.2c0,3.3,0.5,6.3,1.5,9.1s2.4,5.1,4.2,7.1
			c1.8,2,4,3.5,6.7,4.6c2.6,1.1,5.6,1.7,8.9,1.7s6.2-0.6,8.9-1.7c2.6-1.1,4.9-2.7,6.7-4.6c1.8-2,3.2-4.3,4.2-7.1
			c1-2.8,1.5-5.8,1.5-9.1c0-3.3-0.5-6.3-1.5-9.1c-1-2.8-2.4-5.1-4.2-7.1c-1.8-2-4.1-3.5-6.7-4.6s-5.6-1.7-8.9-1.7s-6.2,0.6-8.9,1.7
			c-2.6,1.1-4.9,2.7-6.7,4.6c-1.8,2-3.2,4.3-4.2,7.1C336.7,110.9,336.2,113.9,336.2,117.2z"/>
		
			<linearGradient id="SVGID_7_" gradientUnits="userSpaceOnUse" x1="423.4922" y1="179.5455" x2="468.281" y2="-95.4186" gradientTransform="matrix(1 0 0 -1 0 204)">
			<stop  offset="0" style="stop-color:#FFFFFF"/>
			<stop  offset="0.6697" style="stop-color:#999999"/>
		</linearGradient>
		<path class="st10" d="M404.2,117.2c0-4.7,0.9-9.1,2.7-13.2c1.8-4.1,4.2-7.7,7.3-10.8c3.1-3.1,6.7-5.5,10.9-7.3
			c4.2-1.8,8.7-2.7,13.5-2.7s9.3,0.9,13.5,2.7c4.2,1.8,7.8,4.2,10.9,7.3c3.1,3.1,5.5,6.7,7.3,10.8c1.8,4.1,2.7,8.5,2.7,13.2
			s-0.9,9.2-2.7,13.3c-1.8,4.1-4.2,7.7-7.3,10.8c-3.1,3-6.7,5.5-10.9,7.2c-4.2,1.8-8.7,2.7-13.5,2.7s-9.3-0.9-13.5-2.7
			s-7.8-4.2-10.9-7.2s-5.5-6.6-7.3-10.8C405.1,126.3,404.2,121.9,404.2,117.2z M417.3,117.2c0,3.3,0.5,6.3,1.5,9.1s2.4,5.1,4.2,7.1
			c1.8,2,4,3.5,6.7,4.6c2.6,1.1,5.6,1.7,8.9,1.7s6.2-0.6,8.9-1.7c2.6-1.1,4.9-2.7,6.7-4.6c1.8-2,3.2-4.3,4.2-7.1
			c1-2.8,1.5-5.8,1.5-9.1c0-3.3-0.5-6.3-1.5-9.1c-1-2.8-2.4-5.1-4.2-7.1c-1.8-2-4.1-3.5-6.7-4.6s-5.6-1.7-8.9-1.7s-6.2,0.6-8.9,1.7
			c-2.6,1.1-4.9,2.7-6.7,4.6c-1.8,2-3.2,4.3-4.2,7.1C417.8,110.9,417.3,113.9,417.3,117.2z"/>
		
			<linearGradient id="SVGID_8_" gradientUnits="userSpaceOnUse" x1="499.9636" y1="192.0019" x2="544.7525" y2="-82.9621" gradientTransform="matrix(1 0 0 -1 0 204)">
			<stop  offset="0" style="stop-color:#FFFFFF"/>
			<stop  offset="0.6697" style="stop-color:#999999"/>
		</linearGradient>
		<path class="st11" d="M488.5,46.3h12.3v66.6l27.8-28h17.1l-30.2,29.4l32.8,35.2h-17.5l-30-33.6v33.6h-12.3L488.5,46.3L488.5,46.3z
			"/>
	</g>
</g>
</svg>
